<svg width="400" height="400" viewBox="0 0 400 400" fill="none" xmlns="http://www.w3.org/2000/svg">
  <path d="M200 360C288.366 360 360 288.366 360 200C360 111.634 288.366 40 200 40C111.634 40 40 111.634 40 200C40 288.366 111.634 360 200 360Z" fill="#F5F8F9"/>
  
  <!-- Desk -->
  <path d="M120 240H280C290 240 295 235 295 225V215H105V225C105 235 110 240 120 240Z" fill="#E2FDCB"/>
  <path d="M105 215H295V205C295 195 290 190 280 190H120C110 190 105 195 105 205V215Z" fill="#0D373D"/>
  
  <!-- Books -->
  <rect x="140" y="160" width="40" height="10" rx="2" fill="#E2FDCB"/>
  <rect x="145" y="150" width="30" height="10" rx="2" fill="#0D373D"/>
  <rect x="150" y="140" width="20" height="10" rx="2" fill="#E2FDCB"/>
  
  <!-- Graduation Cap -->
  <path d="M200 120L240 140L200 160L160 140L200 120Z" fill="#0D373D"/>
  <path d="M190 150V170C190 175 195 180 200 180C205 180 210 175 210 170V150" stroke="#0D373D" stroke-width="4"/>
  <circle cx="200" cy="120" r="5" fill="#E2FDCB"/>
  
  <!-- Pencil -->
  <rect x="220" y="150" width="60" height="8" rx="4" transform="rotate(-45 220 150)" fill="#0D373D"/>
  <path d="M270 130L260 140L250 130L260 120L270 130Z" fill="#E2FDCB"/>
  
  <!-- Decorative Elements -->
  <circle cx="300" cy="100" r="20" fill="#E2FDCB"/>
  <path d="M290 100H310M300 90V110" stroke="#0D373D" stroke-width="2" stroke-linecap="round"/>
  
  <circle cx="100" cy="300" r="20" fill="#E2FDCB"/>
  <path d="M90 300L100 310L110 300L100 290L90 300Z" stroke="#0D373D" stroke-width="2" stroke-linecap="round"/>
</svg> 