<svg width="400" height="400" viewBox="0 0 400 400" fill="none" xmlns="http://www.w3.org/2000/svg">
  <path d="M200 350C282.843 350 350 282.843 350 200C350 117.157 282.843 50 200 50C117.157 50 50 117.157 50 200C50 282.843 117.157 350 200 350Z" fill="#F5F8F9"/>
  <path d="M180 260H220M140 180C140 157.909 157.909 140 180 140H220C242.091 140 260 157.909 260 180V220C260 242.091 242.091 260 220 260H180C157.909 260 140 242.091 140 220V180Z" stroke="#0D373D" stroke-width="8" stroke-linecap="round"/>
  <path d="M180 140V120M220 140V120M180 280V260M220 280V260M140 180H120M140 220H120M280 180H260M280 220H260" stroke="#0D373D" stroke-width="8" stroke-linecap="round"/>
  <circle cx="200" cy="200" r="15" fill="#E2FDCB"/>
  <path d="M195 195L205 205M205 195L195 205" stroke="#0D373D" stroke-width="2" stroke-linecap="round"/>
  <circle cx="280" cy="120" r="40" fill="#E2FDCB"/>
  <path d="M265 135C265 127.268 271.268 121 279 121C286.732 121 293 127.268 293 135C293 142.732 286.732 149 279 149C275.134 149 267 149 267 149C267 149 265 140.866 265 137V135Z" stroke="#0D373D" stroke-width="2"/>
  <circle cx="120" cy="280" r="30" fill="#E2FDCB"/>
  <path d="M110 280H130M120 270V290" stroke="#0D373D" stroke-width="2" stroke-linecap="round"/>
</svg> 